<svg width="520" height="520" viewBox="0 0 520 520" fill="none" xmlns="http://www.w3.org/2000/svg">
<path d="M77 104.5C77 79.9233 96.9233 60 121.5 60V60C146.077 60 166 79.9233 166 104.5V260.692C166 282.954 147.954 301 125.692 301V301C98.8002 301 77 279.2 77 252.308V104.5Z" fill="black"/>
<path d="M383.056 341.424C404.863 352.668 413.768 379.96 397.609 398.424C380.845 417.579 360.158 433.15 336.761 443.975C299.82 461.067 258.234 465.35 218.584 456.149C178.935 446.947 143.487 424.785 117.849 393.17C92.212 361.556 77.8502 322.294 77.0366 281.599C76.2229 240.904 89.0041 201.1 113.357 168.486C137.71 135.872 172.245 112.311 211.495 101.532C250.745 90.7525 292.468 93.3706 330.063 108.972C353.874 118.853 375.168 133.585 392.684 152.055C409.568 169.858 401.761 197.484 380.42 209.591V209.591C359.079 221.699 332.196 212.871 311.708 199.372C306.776 196.123 301.523 193.328 296.006 191.039C276.671 183.015 255.212 181.668 235.025 187.212C214.838 192.756 197.077 204.874 184.552 221.647C172.027 238.421 165.453 258.893 165.871 279.823C166.29 300.753 173.676 320.946 186.862 337.206C200.048 353.466 218.279 364.864 238.671 369.596C259.064 374.329 280.452 372.126 299.451 363.335C304.871 360.828 310.009 357.825 314.807 354.381C334.739 340.074 361.248 330.179 383.056 341.424V341.424Z" fill="white"/>
</svg>
